<?xml version="1.0" encoding="UTF-8"?>
<svg id="Capa_1" data-name="Capa 1" xmlns="http://www.w3.org/2000/svg" viewBox="0 0 595.28 841.89">
  <defs>
    <style>
      .cls-1 {
        fill: rgba(255,255,255,0);
        stroke: #f0b103;
        stroke-miterlimit: 10;
        stroke-width: 4px;
      }
    </style>
  </defs>
  <path class="cls-1" d="M362.22,289.18v22.23c0,2.53-2.05,4.59-4.59,4.59h-94.37v212.74c0,2.13-1.72,3.85-3.85,3.85h-31.41c-2.13,0-3.85-1.72-3.85-3.85v-212.74h-94.37c-2.54,0-4.59-2.06-4.59-4.59v-22.23c0-2.53,2.05-4.59,4.59-4.59h94.37v-118.52c0-2.12,1.72-3.85,3.85-3.85h31.41c2.13,0,3.85,1.73,3.85,3.85v118.52h94.37c2.54,0,4.59,2.06,4.59,4.59Z"/>
</svg>